<svg id="Layer_1" data-name="Layer 1" xmlns="http://www.w3.org/2000/svg" viewBox="0 0 750.43247 164.59511"><defs><style>.cls-1{fill:#808285;}.cls-2{fill:#262262;}</style></defs><title>OCI-logo</title><path class="cls-1" d="M270.52853,115.442q-10.19542,9.95478-25.10163,9.95364-14.90905,0-25.1022-9.95364-10.19544-9.95478-10.19458-24.76592,0-14.80885,10.19458-24.76478,10.19286-9.9548,25.1022-9.95479,14.90649,0,25.10163,9.95479,10.19373,9.95478,10.19458,24.76478Q280.72311,105.48835,270.52853,115.442Zm-5.09729-24.718a22.00012,22.00012,0,0,0-5.77041-15.33982,19.02554,19.02554,0,0,0-28.37194,0A22.00013,22.00013,0,0,0,225.51847,90.724a21.82481,21.82481,0,0,0,5.77042,15.293,19.12456,19.12456,0,0,0,28.37194,0A21.8248,21.8248,0,0,0,265.43124,90.724Z" transform="translate(-11.51326 -8.37852)"/><path class="cls-1" d="M343.0815,63.50653q7.06872,6.01193,7.06872,18.46625,0,12.45546-7.26112,18.22531-7.26312,5.77043-22.16875,5.76985h-8.94423v18.75514H296.77257V57.49575h23.75537Q336.01165,57.49575,343.0815,63.50653Zm-11.01215,26.449q2.69166-3.02994,2.69309-8.84832,0-5.81837-3.51066-8.27167-3.5121-2.45273-10.91624-2.45273h-8.55942V92.98493h10.09866Q329.376,92.98493,332.06935,89.95556Z" transform="translate(-11.51326 -8.37852)"/><path class="cls-1" d="M414.11582,57.49575v13.369H380.6466V84.71325h30.103V97.50443h-30.103V111.45h34.52716v13.273H365.64305V57.49575Z" transform="translate(-11.51326 -8.37852)"/><path class="cls-1" d="M479.354,57.49575h15.00355v67.22733H479.354l-32.02647-42.1257v42.1257H432.324V57.49575h14.04152l32.98849,43.279Z" transform="translate(-11.51326 -8.37852)"/><path class="cls-2" d="M541.20963,78.61058a8.79468,8.79468,0,0,0,3.74475-.73137A12.87032,12.87032,0,0,0,548.2361,75.543l2.71079,2.78216a12.477,12.477,0,0,1-9.61279,4.38762,12.88331,12.88331,0,0,1-9.381-3.63856,13.22259,13.22259,0,0,1,.07137-18.47652,13.17344,13.17344,0,0,1,9.59509-3.70935,12.54663,12.54663,0,0,1,9.68417,4.28028l-2.67539,2.92489a11.69969,11.69969,0,0,0-3.37079-2.38993,9.44062,9.44062,0,0,0-3.72705-.67769,8.85813,8.85813,0,0,0-6.34934,2.44359,8.23761,8.23761,0,0,0-2.56806,6.242,8.617,8.617,0,0,0,2.55036,6.34877A8.25836,8.25836,0,0,0,541.20963,78.61058Z" transform="translate(-11.51326 -8.37852)"/><path class="cls-2" d="M577.38664,78.98511a13.67453,13.67453,0,0,1-18.69063,0,13.09027,13.09027,0,0,1,0-18.40516,13.67453,13.67453,0,0,1,18.69063,0,13.0903,13.0903,0,0,1,0,18.40516ZM574.30132,63.3798a8.74322,8.74322,0,0,0-12.52,0,9.31226,9.31226,0,0,0,0,12.80545,8.74322,8.74322,0,0,0,12.52,0,9.31229,9.31229,0,0,0,0-12.80545Z" transform="translate(-11.51326 -8.37852)"/><path class="cls-2" d="M606.52528,57.49463h4.20892V82.42726h-4.56575L592.04357,64.2362V82.42726h-4.20892V57.49463h4.20892l14.48171,18.61926Z" transform="translate(-11.51326 -8.37852)"/><path class="cls-2" d="M628.9378,61.34671V82.42726h-4.20891V61.34671h-7.56144V57.49463h19.33236v3.85208Z" transform="translate(-11.51326 -8.37852)"/><path class="cls-2" d="M644.66015,76.75619l-2.49669,5.67107h-4.49438L648.655,57.49463h4.49438l10.98589,24.93263h-4.49438l-2.49669-5.67107Zm10.77179-3.88806-4.52978-10.27279-4.52978,10.27279Z" transform="translate(-11.51326 -8.37852)"/><path class="cls-2" d="M670.34528,57.49463h4.20891V82.42726h-4.20891Z" transform="translate(-11.51326 -8.37852)"/><path class="cls-2" d="M702.35632,57.49463h4.20892V82.42726h-4.56575L687.87461,64.2362V82.42726H683.6657V57.49463h4.20891l14.48171,18.61926Z" transform="translate(-11.51326 -8.37852)"/><path class="cls-2" d="M732.90348,57.49463V61.454H719.599v6.59885h11.94905v3.74532H719.599v6.66963h13.73264v3.95942H715.39012V57.49463Z" transform="translate(-11.51326 -8.37852)"/><path class="cls-2" d="M760.71816,65.59159q0,6.17123-5.38618,7.77554l6.52748,9.06013h-5.35021l-5.95655-8.38243h-5.52891v8.38243h-4.20892V57.49463h9.27424q5.70618,0,8.16776,1.92632Q760.71816,61.347,760.71816,65.59159Zm-5.60028,3.53122a4.44442,4.44442,0,0,0,1.2846-3.54891q0-2.44332-1.32-3.35309-1.3197-.90949-4.70848-.9095h-5.35021v8.9174h5.24345Q753.83328,70.22871,755.11788,69.12281Z" transform="translate(-11.51326 -8.37852)"/><path class="cls-2" d="M529.86441,99.78533h4.20892V124.718h-4.20892Z" transform="translate(-11.51326 -8.37852)"/><path class="cls-2" d="M565.023,99.78533h4.20892V124.718h-4.56575L550.54131,106.5269V124.718h-4.20892V99.78533h4.20892L565.023,118.40459Z" transform="translate(-11.51326 -8.37852)"/><path class="cls-2" d="M581.49158,99.78533h4.20891V124.718h-4.20891Z" transform="translate(-11.51326 -8.37852)"/><path class="cls-2" d="M607.05167,103.63741V124.718h-4.20892V103.63741h-7.56143V99.78533h19.33235v3.85208Z" transform="translate(-11.51326 -8.37852)"/><path class="cls-2" d="M624.19392,99.78533h4.20892V124.718h-4.20892Z" transform="translate(-11.51326 -8.37852)"/><path class="cls-2" d="M644.4392,119.04689l-2.49669,5.67107h-4.49438L648.434,99.78533h4.49438L663.91429,124.718h-4.49438l-2.49669-5.67107Zm10.77179-3.88806L650.68121,104.886l-4.52978,10.27279Z" transform="translate(-11.51326 -8.37852)"/><path class="cls-2" d="M679.708,103.63741V124.718h-4.20891V103.63741h-7.56144V99.78533H687.27v3.85208Z" transform="translate(-11.51326 -8.37852)"/><path class="cls-2" d="M696.85026,99.78533h4.20892V124.718h-4.20892Z" transform="translate(-11.51326 -8.37852)"/><path class="cls-2" d="M724.88649,124.718H720.178L710.15471,99.78533h4.70848l7.66877,18.61926,7.66877-18.61926h4.70848Z" transform="translate(-11.51326 -8.37852)"/><path class="cls-2" d="M761.51753,99.78533v3.95942H748.21309v6.59884h11.94905v3.74532H748.21309v6.66963h13.73264V124.718H744.00417V99.78533Z" transform="translate(-11.51326 -8.37852)"/><polygon class="cls-1" points="93.798 59.877 93.798 36.305 35.439 36.305 35.439 128.29 93.798 128.29 93.798 104.718 59.01 104.718 59.01 59.877 93.798 59.877"/><rect class="cls-2" x="105.58468" y="36.30488" width="23.57181" height="23.57364"/><rect class="cls-2" x="105.58468" y="71.66442" width="23.57181" height="56.62581"/><path class="cls-2" d="M11.51326,8.37852V172.97363H176.10838V8.37852Zm140.948,140.11033H35.16035V32.86324H152.46129Z" transform="translate(-11.51326 -8.37852)"/></svg>